<mxfile host="app.diagrams.net" modified="2022-05-17T02:00:30.639Z" agent="5.0 (Windows NT 10.0; Win64; x64) AppleWebKit/537.36 (KHTML, like Gecko) Chrome/101.0.4951.67 Safari/537.36" etag="LSfmFrmYrnmHpNDmwb-Z" version="18.0.6" type="github">
  <diagram id="S6Tdsbq0rruTtPTXaDaC" name="Page-1">
    <mxGraphModel dx="498" dy="674" grid="1" gridSize="10" guides="1" tooltips="1" connect="1" arrows="1" fold="1" page="1" pageScale="1" pageWidth="827" pageHeight="1169" math="0" shadow="0">
      <root>
        <mxCell id="0" />
        <mxCell id="1" parent="0" />
        <mxCell id="tc1C0obJEG0pX-OKqOCw-3" value="" style="edgeStyle=orthogonalEdgeStyle;rounded=0;orthogonalLoop=1;jettySize=auto;html=1;" edge="1" parent="1" source="tc1C0obJEG0pX-OKqOCw-1" target="tc1C0obJEG0pX-OKqOCw-2">
          <mxGeometry relative="1" as="geometry" />
        </mxCell>
        <mxCell id="tc1C0obJEG0pX-OKqOCw-1" value="Начало" style="ellipse;whiteSpace=wrap;html=1;" vertex="1" parent="1">
          <mxGeometry x="200" y="10" width="120" height="80" as="geometry" />
        </mxCell>
        <mxCell id="tc1C0obJEG0pX-OKqOCw-5" value="" style="edgeStyle=orthogonalEdgeStyle;rounded=0;orthogonalLoop=1;jettySize=auto;html=1;" edge="1" parent="1" source="tc1C0obJEG0pX-OKqOCw-2" target="tc1C0obJEG0pX-OKqOCw-4">
          <mxGeometry relative="1" as="geometry" />
        </mxCell>
        <mxCell id="tc1C0obJEG0pX-OKqOCw-2" value="Ввод A, B" style="shape=parallelogram;perimeter=parallelogramPerimeter;whiteSpace=wrap;html=1;fixedSize=1;" vertex="1" parent="1">
          <mxGeometry x="200" y="180" width="120" height="60" as="geometry" />
        </mxCell>
        <mxCell id="tc1C0obJEG0pX-OKqOCw-7" value="" style="edgeStyle=orthogonalEdgeStyle;rounded=0;orthogonalLoop=1;jettySize=auto;html=1;" edge="1" parent="1" source="tc1C0obJEG0pX-OKqOCw-4" target="tc1C0obJEG0pX-OKqOCw-6">
          <mxGeometry relative="1" as="geometry" />
        </mxCell>
        <mxCell id="tc1C0obJEG0pX-OKqOCw-4" value="A * B" style="rhombus;whiteSpace=wrap;html=1;" vertex="1" parent="1">
          <mxGeometry x="190" y="310" width="140" height="60" as="geometry" />
        </mxCell>
        <mxCell id="tc1C0obJEG0pX-OKqOCw-9" value="" style="edgeStyle=orthogonalEdgeStyle;rounded=0;orthogonalLoop=1;jettySize=auto;html=1;" edge="1" parent="1" source="tc1C0obJEG0pX-OKqOCw-6" target="tc1C0obJEG0pX-OKqOCw-8">
          <mxGeometry relative="1" as="geometry" />
        </mxCell>
        <mxCell id="tc1C0obJEG0pX-OKqOCw-6" value="Вывод С" style="shape=parallelogram;perimeter=parallelogramPerimeter;whiteSpace=wrap;html=1;fixedSize=1;" vertex="1" parent="1">
          <mxGeometry x="200" y="420" width="120" height="60" as="geometry" />
        </mxCell>
        <mxCell id="tc1C0obJEG0pX-OKqOCw-8" value="Конец" style="ellipse;whiteSpace=wrap;html=1;" vertex="1" parent="1">
          <mxGeometry x="200" y="560" width="120" height="60" as="geometry" />
        </mxCell>
      </root>
    </mxGraphModel>
  </diagram>
</mxfile>
